<?xml version="1.0" encoding="UTF-8" standalone="no"?>
<svg
   xmlns:dc="http://purl.org/dc/elements/1.1/"
   xmlns:cc="http://creativecommons.org/ns#"
   xmlns:rdf="http://www.w3.org/1999/02/22-rdf-syntax-ns#"
   xmlns:svg="http://www.w3.org/2000/svg"
   xmlns="http://www.w3.org/2000/svg"
   xmlns:xlink="http://www.w3.org/1999/xlink"
   xmlns:sodipodi="http://sodipodi.sourceforge.net/DTD/sodipodi-0.dtd"
   xmlns:inkscape="http://www.inkscape.org/namespaces/inkscape"
   inkscape:version="1.0 (4035a4fb49, 2020-05-01)"
   sodipodi:docname="ei.svg"
   id="svg105"
   version="1.1"
   style=""
   viewBox="0 -1481.6 8110.7 2436.7"
   height="44.104px"
   width="146.800px">
  <metadata
     id="metadata109">
    <rdf:RDF>
      <cc:Work
         rdf:about="">
        <dc:format>image/svg+xml</dc:format>
        <dc:type
           rdf:resource="http://purl.org/dc/dcmitype/StillImage" />
        <dc:title></dc:title>
      </cc:Work>
    </rdf:RDF>
  </metadata>
  <sodipodi:namedview
     inkscape:current-layer="svg105"
     inkscape:window-maximized="1"
     inkscape:window-y="-7"
     inkscape:window-x="-7"
     inkscape:cy="79.931053"
     inkscape:cx="25.336546"
     inkscape:zoom="2.9358418"
     showgrid="false"
     id="namedview107"
     inkscape:window-height="1010"
     inkscape:window-width="1920"
     inkscape:pageshadow="2"
     inkscape:pageopacity="0"
     guidetolerance="10"
     gridtolerance="10"
     objecttolerance="10"
     borderopacity="1"
     bordercolor="#666666"
     pagecolor="#ffffff" />
  <defs
     id="defs15">
    <path
       d="M230 74L230 334L315 334C360 334 388 326 400 311C412 296 418 265 418 218L451 218L451 488L418 488C418 441 412 411 400 396C388 381 360 373 315 373L230 373L230 606C230 642 236 641 275 641L402 641C474 641 522 627 547 598C579 559 583 523 592 450L625 450L596 680L33 680L33 641L61 641C96 641 117 639 124 634C131 629 135 617 135 599L135 81C135 63 131 51 124 46C117 41 96 39 61 39L33 39L33 0L610 0L653 263L620 263C611 208 602 166 591 136C580 106 560 82 530 63C505 47 464 39 406 39L275 39C236 39 230 38 230 74Z"
       id="MJX-20-NCM-N-45" />
    <path
       d="M194 601C194 631 169 657 139 657C109 657 83 631 83 601C83 571 108 544 138 544C169 544 194 570 194 601M143 3L247 0L247 39C214 39 194 41 188 45C182 49 180 60 180 78L180 445L37 433L37 395C70 395 91 392 98 387C105 382 108 368 108 345L108 79C108 60 105 48 98 44C91 40 69 39 33 39L33 0Z"
       id="MJX-20-NCM-N-69" />
    <path
       d=""
       id="MJX-20-NCM-N-2061" />
    <path
       d="M318-248C327-248 332-243 332-234C332-231 330-227 327-223C275-183 233-117 202-26C175 53 161 131 161 208L161 292C161 369 175 447 202 526C233 617 275 683 327 723C330 726 332 730 332 734C332 743 327 748 318 748C317 748 314 747 311 745C251 699 201 631 160 540C121 453 101 371 101 292L101 208C101 129 121 47 160-40C201-131 251-199 311-245C314-247 317-248 318-248Z"
       id="MJX-20-NCM-N-28" />
    <path
       d="M527 373C527 419 482 442 432 442C389 442 355 419 329 373C308 419 273 442 222 442C173 442 133 419 101 374C74 335 60 306 60 287C60 278 65 273 75 273C84 273 90 278 92 287C111 345 153 413 220 413C253 413 269 392 269 351C269 330 251 252 216 118C199 51 169 18 126 18C112 18 99 21 88 26C114 36 127 54 127 80C127 106 114 119 87 119C54 119 29 91 29 58C29 12 76-11 125-11C167-11 201 12 228 58C247 12 283-11 335-11C383-11 423 12 455 57C482 96 496 125 496 144C496 153 491 158 481 158C472 158 467 153 464 144C447 87 402 18 337 18C304 18 287 38 287 79C287 92 292 120 303 165L337 300C356 375 387 413 431 413C445 413 458 410 469 405C442 396 429 378 429 351C429 325 443 312 470 312C502 312 527 341 527 373Z"
       id="MJX-20-NCM-I-1D465" />
    <path
       d="M78-245C138-199 188-131 229-40C268 47 288 129 288 208L288 292C288 371 268 453 229 540C188 631 138 699 78 745C75 747 72 748 71 748C62 748 57 743 57 734C57 730 59 726 62 723C114 683 156 617 187 526C214 447 228 369 228 292L228 208C228 131 214 53 187-26C156-117 114-183 62-223C59-227 57-231 57-234C57-243 62-248 71-248C72-248 75-247 78-245Z"
       id="MJX-20-NCM-N-29" />
    <path
       d="M698 367L80 367C64 367 56 359 56 344C56 329 64 321 80 321L698 321C714 321 722 329 722 344C722 356 711 367 698 367M698 179L80 179C64 179 56 171 56 156C56 141 64 133 80 133L698 133C714 133 722 141 722 156C722 169 711 179 698 179Z"
       id="MJX-20-NCM-N-3D" />
    <path
       d="M831 1361C784 1361 742 1318 703 1232C684 1191 664 1129 642 1046C545 688 472 339 395-117C360-328 331-481 308-574C267-745 220-831 168-831C149-831 132-826 117-815C146-810 160-793 160-763C160-734 138-711 109-711C74-711 56-729 56-764C56-822 113-861 170-861C243-861 303-803 350-688C375-627 409-509 451-336C524-39 589 279 646 617C686 854 722 1034 753 1157C782 1273 809 1331 833 1331C853 1331 870 1326 883 1315C854 1310 839 1293 839 1263C839 1234 861 1211 890 1211C925 1211 943 1229 943 1264C943 1319 889 1361 831 1361Z"
       id="MJX-20-NCM-LO-222B" />
    <path
       d="M698 270L80 270C64 270 56 263 56 250C56 237 64 230 80 230L698 230C714 230 722 237 722 250C722 262 710 270 698 270Z"
       id="MJX-20-NCM-N-2212" />
    <path
       d="M749-11C807-11 855 13 892 60C926 104 943 156 943 216C943 275 926 327 893 371C856 418 809 442 752 442C684 442 625 416 576 364C547 332 524 303 507 278C464 329 435 361 421 373C367 419 310 442 250 442C192 442 144 418 107 371C73 327 56 275 56 215C56 156 73 104 106 60C143 13 190-11 247-11C315-11 374 15 423 67C452 99 475 128 492 153C535 102 564 70 578 58C632 12 689-11 749-11M913 216C913 188 911 168 908 156C903 137 890 117 869 94C840 61 805 44 765 44C722 44 680 67 637 113C592 168 559 209 538 237C601 348 675 403 759 403C852 403 913 314 913 216M86 215C86 260 100 299 128 334C156 369 191 387 234 387C277 387 319 364 362 318C407 263 440 222 461 194C398 83 324 28 240 28C147 28 86 117 86 215Z"
       id="MJX-20-NCM-N-221E" />
    <path
       d="M124 129C124 153 129 186 139 227L188 227C253 227 303 235 339 250C372 264 394 284 405 309C412 326 415 342 415 355C415 410 363 442 307 442C268 442 229 432 190 412C113 372 46 281 46 171C46 69 105-11 204-11C257-11 304 2 345 27C379 48 404 69 420 90C427 99 430 106 430 109C430 120 425 126 414 126C409 126 404 122 398 114C365 70 324 42 277 30C246 22 223 18 206 18C149 18 124 72 124 129M375 355C375 289 311 256 182 256L147 256C166 322 194 366 232 387C262 404 287 413 307 413C343 413 375 391 375 355Z"
       id="MJX-20-NCM-I-1D452" />
    <path
       d="M330 419C330 428 320 433 299 433L218 433C244 537 257 591 257 595C257 616 246 626 225 626C202 626 188 613 182 587L145 433L56 433C34 433 23 432 23 411C23 400 33 395 54 395L135 395C86 200 62 97 62 84C62 28 100-11 156-11C194-11 227 6 256 41C280 70 297 98 308 125C312 136 314 142 314 145C314 154 309 159 299 159C291 159 285 154 281 143C247 60 206 19 157 19C140 19 131 33 131 60C131 75 133 91 137 107L208 395L297 395C323 395 330 397 330 419Z"
       id="MJX-20-NCM-I-1D461" />
    <path
       d="M429 632L370 389C349 426 320 445 281 445C216 445 159 412 109 345C63 283 40 218 40 151C40 63 91-11 175-11C218-11 260 12 300 59C311 21 345-11 392-11C461-11 483 71 498 145C498 154 493 159 483 159C474 159 468 152 465 138C445 59 421 19 394 19C377 19 368 33 368 60C368 75 370 91 374 107L516 679L516 683C513 690 507 694 499 694C476 694 434 690 374 683C363 682 357 674 357 660C357 650 366 645 384 645C403 645 429 646 429 632M341 376C351 355 356 341 356 332C355 328 354 323 353 316L304 122C301 111 294 99 285 87C248 42 212 19 177 19C138 19 118 49 118 108C118 132 124 168 136 216C157 301 187 359 224 390C244 407 263 415 282 415C309 415 329 402 341 376Z"
       id="MJX-20-NCM-I-1D451" />
  </defs>
  <g
     style="fill:#dddddd;fill-opacity:1"
     id="g103"
     transform="scale(1,-1)"
     stroke-width="0"
     fill="#000000"
     stroke="#000000">
    <g
       style="fill:#dddddd;fill-opacity:1"
       id="g101"
       data-semantic-structure="(24 (23 0 22 (19 1 2 3)) 4 (21 (10 5 (8 6 7) 9) (15 (13 11 12) 14) (20 17 18)))"
       data-speech-node="true"
       aria-level="0"
       data-semantic-owns="23 4 21"
       data-semantic-attributes="latex:\mathrm{Ei}(x)=\int_{-\infty}^x\frac{e^t}{t}\,dt"
       data-semantic-content="4"
       data-semantic-children="23,21"
       data-semantic-id="24"
       data-semantic-annotation="depth:1"
       data-semantic-role="equality"
       data-semantic-type="relseq"
       data-latex="\mathrm{Ei}(x)=\int_{-\infty}^x\frac{e^t}{t}\,dt"
       data-mml-node="math">
      <g
         style="fill:#dddddd;fill-opacity:1"
         id="g43"
         data-speech-node="true"
         aria-level="1"
         data-semantic-owns="0 22 19"
         data-semantic-parent="24"
         data-semantic-content="22,0"
         data-semantic-children="0,19"
         data-semantic-id="23"
         data-semantic-annotation="clearspeak:simple;depth:2"
         data-semantic-role="simple function"
         data-semantic-type="appl"
         data-semantic-added="true"
         data-mml-node="mrow">
        <g
           style="fill:#dddddd;fill-opacity:1"
           id="g23"
           data-latex="\mathrm{Ei}"
           data-mjx-texclass="ORD"
           data-mml-node="TeXAtom">
          <g
             style="fill:#dddddd;fill-opacity:1"
             id="g21"
             data-speech-node="true"
             aria-level="2"
             data-semantic-operator="appl"
             data-semantic-attributes="latex:\mathrm{Ei};texclass:ORD"
             data-semantic-parent="23"
             data-semantic-id="0"
             data-semantic-annotation="clearspeak:simple;nemeth:number;depth:3"
             data-semantic-font="normal"
             data-semantic-role="simple function"
             data-semantic-type="identifier"
             data-latex="Ei"
             data-mml-node="mi">
            <use
               style="fill:#dddddd;fill-opacity:1"
               id="use17"
               xlink:href="#MJX-20-NCM-N-45"
               data-c="45" />
            <use
               style="fill:#dddddd;fill-opacity:1"
               id="use19"
               transform="translate(681,0)"
               xlink:href="#MJX-20-NCM-N-69"
               data-c="69" />
          </g>
        </g>
        <g
           style="fill:#dddddd;fill-opacity:1"
           id="g27"
           transform="translate(959,0)"
           data-speech-node="true"
           aria-level="2"
           data-semantic-operator="appl"
           data-semantic-added="true"
           data-semantic-parent="23"
           data-semantic-id="22"
           data-semantic-annotation="nemeth:number;depth:3"
           data-semantic-role="application"
           data-semantic-type="punctuation"
           data-mml-node="mo">
          <use
             style="fill:#dddddd;fill-opacity:1"
             id="use25"
             xlink:href="#MJX-20-NCM-N-2061"
             data-c="2061" />
        </g>
        <g
           style="fill:#dddddd;fill-opacity:1"
           id="g41"
           transform="translate(959,0)"
           data-speech-node="true"
           aria-level="2"
           data-semantic-owns="1 2 3"
           data-semantic-parent="23"
           data-semantic-content="1,3"
           data-semantic-children="2"
           data-semantic-id="19"
           data-semantic-annotation="depth:3"
           data-semantic-role="leftright"
           data-semantic-type="fenced"
           data-semantic-added="true"
           data-mml-node="mrow">
          <g
             style="fill:#dddddd;fill-opacity:1"
             id="g31"
             data-speech-node="true"
             aria-level="3"
             data-semantic-operator="fenced"
             data-semantic-attributes="latex:("
             data-semantic-parent="19"
             data-semantic-id="1"
             data-semantic-annotation="depth:4"
             data-semantic-role="open"
             data-semantic-type="fence"
             data-latex="("
             data-mml-node="mo">
            <use
               style="fill:#dddddd;fill-opacity:1"
               id="use29"
               xlink:href="#MJX-20-NCM-N-28"
               data-c="28" />
          </g>
          <g
             style="fill:#dddddd;fill-opacity:1"
             id="g35"
             transform="translate(389,0)"
             data-speech-node="true"
             aria-level="3"
             data-semantic-attributes="latex:x"
             data-semantic-parent="19"
             data-semantic-id="2"
             data-semantic-annotation="clearspeak:simple;depth:4"
             data-semantic-font="italic"
             data-semantic-role="latinletter"
             data-semantic-type="identifier"
             data-latex="x"
             data-mml-node="mi">
            <use
               style="fill:#dddddd;fill-opacity:1"
               id="use33"
               xlink:href="#MJX-20-NCM-I-1D465"
               data-c="1D465" />
          </g>
          <g
             style="fill:#dddddd;fill-opacity:1"
             id="g39"
             transform="translate(961,0)"
             data-speech-node="true"
             aria-level="3"
             data-semantic-operator="fenced"
             data-semantic-attributes="latex:)"
             data-semantic-parent="19"
             data-semantic-id="3"
             data-semantic-annotation="depth:4"
             data-semantic-role="close"
             data-semantic-type="fence"
             data-latex=")"
             data-mml-node="mo">
            <use
               style="fill:#dddddd;fill-opacity:1"
               id="use37"
               xlink:href="#MJX-20-NCM-N-29"
               data-c="29" />
          </g>
        </g>
      </g>
      <g
         style="fill:#dddddd;fill-opacity:1"
         id="g47"
         transform="translate(2586.8,0)"
         data-speech-node="true"
         aria-level="1"
         data-semantic-operator="relseq,="
         data-semantic-attributes="latex:="
         data-semantic-parent="24"
         data-semantic-id="4"
         data-semantic-annotation="nemeth:number;depth:2"
         data-semantic-role="equality"
         data-semantic-type="relation"
         data-latex="="
         data-mml-node="mo">
        <use
           style="fill:#dddddd;fill-opacity:1"
           id="use45"
           xlink:href="#MJX-20-NCM-N-3D"
           data-c="3D" />
      </g>
      <g
         style="fill:#dddddd;fill-opacity:1"
         id="g99"
         transform="translate(3642.6,0)"
         data-speech-node="true"
         aria-level="1"
         data-semantic-owns="10 15 20"
         data-semantic-parent="24"
         data-semantic-content="5"
         data-semantic-children="10,15,20"
         data-semantic-id="21"
         data-semantic-annotation="depth:2"
         data-semantic-role="integral"
         data-semantic-type="integral"
         data-semantic-added="true"
         data-mml-node="mrow">
        <g
           style="fill:#dddddd;fill-opacity:1"
           id="g67"
           data-speech-node="true"
           aria-level="2"
           data-semantic-owns="5 8 9"
           data-semantic-attributes="latex:\int_{-\infty}^x"
           data-semantic-parent="21"
           data-semantic-children="5,8,9"
           data-semantic-id="10"
           data-semantic-annotation="depth:3"
           data-semantic-role="integral"
           data-semantic-type="limboth"
           data-latex="\int_{-\infty}^x"
           data-mml-node="msubsup">
          <g
             style="fill:#dddddd;fill-opacity:1"
             id="g51"
             data-speech-node="true"
             aria-level="3"
             data-semantic-operator="integral"
             data-semantic-attributes="latex:\int"
             data-semantic-parent="10"
             data-semantic-id="5"
             data-semantic-annotation="nemeth:number;depth:4"
             data-semantic-role="integral"
             data-semantic-type="largeop"
             data-latex="\int"
             data-mml-node="mo">
            <use
               style="fill:#dddddd;fill-opacity:1"
               id="use49"
               xlink:href="#MJX-20-NCM-LO-222B"
               data-c="222B" />
          </g>
          <g
             style="fill:#dddddd;fill-opacity:1"
             id="g55"
             data-speech-node="true"
             aria-level="3"
             data-semantic-attributes="latex:x"
             data-semantic-parent="10"
             data-semantic-id="9"
             data-semantic-annotation="clearspeak:simple;depth:4"
             data-semantic-font="italic"
             data-semantic-role="latinletter"
             data-semantic-type="identifier"
             data-latex="x"
             transform="translate(1098.5,1088.1) scale(0.707)"
             data-mml-node="mi">
            <use
               style="fill:#dddddd;fill-opacity:1"
               id="use53"
               xlink:href="#MJX-20-NCM-I-1D465"
               data-c="1D465" />
          </g>
          <g
             style="fill:#dddddd;fill-opacity:1"
             id="g65"
             data-speech-node="true"
             aria-level="3"
             data-semantic-owns="6 7"
             data-semantic-attributes="latex:{-\infty};texclass:ORD"
             data-semantic-parent="10"
             data-semantic-content="6"
             data-semantic-children="7"
             data-semantic-id="8"
             data-semantic-annotation="depth:4"
             data-semantic-role="negative"
             data-semantic-type="prefixop"
             data-latex="{-\infty}"
             data-mjx-texclass="ORD"
             transform="translate(702,-896.4) scale(0.707)"
             data-mml-node="TeXAtom">
            <g
               style="fill:#dddddd;fill-opacity:1"
               id="g59"
               data-speech-node="true"
               aria-level="4"
               data-semantic-operator="prefixop,−"
               data-semantic-attributes="latex:-"
               data-semantic-parent="8"
               data-semantic-id="6"
               data-semantic-annotation="nemeth:number;depth:5"
               data-semantic-role="subtraction"
               data-semantic-type="operator"
               data-latex="-"
               data-mml-node="mo">
              <use
                 style="fill:#dddddd;fill-opacity:1"
                 id="use57"
                 xlink:href="#MJX-20-NCM-N-2212"
                 data-c="2212" />
            </g>
            <g
               style="fill:#dddddd;fill-opacity:1"
               id="g63"
               transform="translate(778,0)"
               data-speech-node="true"
               aria-level="4"
               data-semantic-attributes="latex:\infty"
               data-semantic-parent="8"
               data-semantic-id="7"
               data-semantic-annotation="nemeth:number;depth:5"
               data-semantic-font="normal"
               data-semantic-role="infty"
               data-semantic-type="identifier"
               data-latex="\infty"
               data-mml-node="mi">
              <use
                 style="fill:#dddddd;fill-opacity:1"
                 id="use61"
                 xlink:href="#MJX-20-NCM-N-221E"
                 data-c="221E" />
            </g>
          </g>
        </g>
        <g
           style="fill:#dddddd;fill-opacity:1"
           id="g85"
           transform="translate(2175.9,0)"
           data-speech-node="true"
           aria-level="2"
           data-semantic-owns="13 14"
           data-semantic-attributes="latex:\frac{e^t}{t}"
           data-semantic-parent="21"
           data-semantic-children="13,14"
           data-semantic-id="15"
           data-semantic-annotation="depth:3"
           data-semantic-role="division"
           data-semantic-type="fraction"
           data-latex="\frac{e^t}{t}"
           data-mml-node="mfrac">
          <g
             style="fill:#dddddd;fill-opacity:1"
             id="g77"
             transform="translate(220,676)"
             data-speech-node="true"
             aria-level="3"
             data-semantic-owns="11 12"
             data-semantic-attributes="latex:e^t"
             data-semantic-parent="15"
             data-semantic-children="11,12"
             data-semantic-id="13"
             data-semantic-annotation="depth:4"
             data-semantic-role="latinletter"
             data-semantic-type="superscript"
             data-latex="e^t"
             data-mml-node="msup">
            <g
               style="fill:#dddddd;fill-opacity:1"
               id="g71"
               data-speech-node="true"
               aria-level="4"
               data-semantic-attributes="latex:e"
               data-semantic-parent="13"
               data-semantic-id="11"
               data-semantic-annotation="clearspeak:simple;depth:5"
               data-semantic-font="italic"
               data-semantic-role="latinletter"
               data-semantic-type="identifier"
               data-latex="e"
               data-mml-node="mi">
              <use
                 style="fill:#dddddd;fill-opacity:1"
                 id="use69"
                 xlink:href="#MJX-20-NCM-I-1D452"
                 data-c="1D452" />
            </g>
            <g
               style="fill:#dddddd;fill-opacity:1"
               id="g75"
               data-speech-node="true"
               aria-level="4"
               data-semantic-attributes="latex:t"
               data-semantic-parent="13"
               data-semantic-id="12"
               data-semantic-annotation="clearspeak:simple;depth:5"
               data-semantic-font="italic"
               data-semantic-role="latinletter"
               data-semantic-type="identifier"
               data-latex="t"
               transform="translate(499,363) scale(0.707)"
               data-mml-node="mi">
              <use
                 style="fill:#dddddd;fill-opacity:1"
                 id="use73"
                 xlink:href="#MJX-20-NCM-I-1D461"
                 data-c="1D461" />
            </g>
          </g>
          <g
             style="fill:#dddddd;fill-opacity:1"
             id="g81"
             transform="translate(441.6,-686)"
             data-speech-node="true"
             aria-level="3"
             data-semantic-attributes="latex:t"
             data-semantic-parent="15"
             data-semantic-id="14"
             data-semantic-annotation="clearspeak:simple;depth:4"
             data-semantic-font="italic"
             data-semantic-role="latinletter"
             data-semantic-type="identifier"
             data-latex="t"
             data-mml-node="mi">
            <use
               style="fill:#dddddd;fill-opacity:1"
               id="use79"
               xlink:href="#MJX-20-NCM-I-1D461"
               data-c="1D461" />
          </g>
          <rect
             style="fill:#dddddd;fill-opacity:1"
             id="rect83"
             y="220"
             x="120"
             height="60"
             width="1004.3" />
        </g>
        <g
           style="fill:#dddddd;fill-opacity:1"
           id="g87"
           transform="translate(3420.2,0)"
           data-latex="\,"
           data-mml-node="mspace" />
        <g
           style="fill:#dddddd;fill-opacity:1"
           id="g97"
           transform="translate(3587.2,0)"
           data-speech-node="true"
           aria-level="2"
           data-semantic-owns="17 18"
           data-semantic-parent="21"
           data-semantic-content="17"
           data-semantic-children="18"
           data-semantic-id="20"
           data-semantic-annotation="depth:3"
           data-semantic-font="normal"
           data-semantic-role="integral"
           data-semantic-type="prefixop"
           data-semantic-added="true"
           data-mml-node="mrow">
          <g
             style="fill:#dddddd;fill-opacity:1"
             id="g91"
             data-speech-node="true"
             aria-level="3"
             data-semantic-operator="prefixop,d"
             data-semantic-attributes="latex:d"
             data-semantic-parent="20"
             data-semantic-id="17"
             data-semantic-annotation="clearspeak:simple;depth:4"
             data-semantic-font="italic"
             data-semantic-role="latinletter"
             data-semantic-type="identifier"
             data-latex="d"
             data-mml-node="mi">
            <use
               style="fill:#dddddd;fill-opacity:1"
               id="use89"
               xlink:href="#MJX-20-NCM-I-1D451"
               data-c="1D451" />
          </g>
          <g
             style="fill:#dddddd;fill-opacity:1"
             id="g95"
             transform="translate(520,0)"
             data-speech-node="true"
             aria-level="3"
             data-semantic-attributes="latex:t"
             data-semantic-parent="20"
             data-semantic-id="18"
             data-semantic-annotation="clearspeak:simple;depth:4"
             data-semantic-font="italic"
             data-semantic-role="latinletter"
             data-semantic-type="identifier"
             data-latex="t"
             data-mml-node="mi">
            <use
               style="fill:#dddddd;fill-opacity:1"
               id="use93"
               xlink:href="#MJX-20-NCM-I-1D461"
               data-c="1D461" />
          </g>
        </g>
      </g>
    </g>
  </g>
</svg>
